<svg width="40" height="40" viewBox="0 0 50 50" fill="none" xmlns="http://www.w3.org/2000/svg">
<g clip-path="url(#clip0)">
<path d="M50 25.1543C50 11.2605 38.8063 -0.00195312 25 -0.00195312C11.1875 0.00117188 -0.00624847 11.2605 -0.00624847 25.1574C-0.00624847 37.7105 9.1375 48.1168 21.0875 50.0043V32.4262H14.7438V25.1574H21.0938V19.6105C21.0938 13.3074 24.8281 9.82617 30.5375 9.82617C33.275 9.82617 36.1344 10.3168 36.1344 10.3168V16.5043H32.9813C29.8781 16.5043 28.9094 18.4449 28.9094 20.4355V25.1543H35.8406L34.7344 32.423H28.9063V50.0012C40.8563 48.1137 50 37.7074 50 25.1543Z" fill="#2F8CFA"/>
</g>
<defs>
<clipPath id="clip0">
<rect width="50" height="50" fill="white"/>
</clipPath>
</defs>
</svg>
