<svg width="26" height="26" viewBox="0 0 26 26" fill="none" xmlns="http://www.w3.org/2000/svg">
<g clip-path="url(#clip0)">
<path fill-rule="evenodd" clip-rule="evenodd" d="M1.58225 12.5539C1.58683 15.4547 2.74357 18.2366 4.79799 20.2878C6.85241 22.3389 9.63622 23.4911 12.537 23.491C15.4378 23.4909 18.218 22.3385 20.2659 20.2873C22.3139 18.236 23.4618 15.454 23.4572 12.5532C23.4527 9.6524 22.2959 6.87044 20.2415 4.81933C18.1871 2.76822 15.4033 1.61597 12.5025 1.61606C9.60166 1.61615 6.82149 2.76858 4.77355 4.81982C2.72561 6.87106 1.57767 9.65309 1.58225 12.5539ZM25.0197 12.5531C25.025 15.8684 23.7131 19.0478 21.3725 21.3921C19.032 23.7364 15.8547 25.0534 12.5395 25.0535C9.22429 25.0536 6.04279 23.7368 3.69488 21.3926C1.34697 19.0485 0.0249874 15.8691 0.0197495 12.5539C0.0145116 9.23874 1.32645 6.05928 3.66695 3.715C6.00745 1.37072 9.18479 0.053665 12.5 0.0535603C15.8152 0.0534556 18.9967 1.37031 21.3446 3.71444C23.6925 6.05857 25.0145 9.23795 25.0197 12.5531ZM17.9873 11.7721C18.1945 11.7721 18.3933 11.8544 18.5401 12.0009C18.6868 12.1474 18.7694 12.3461 18.7697 12.5533C18.7701 12.7605 18.6881 12.9593 18.5418 13.1058C18.3955 13.2523 18.1969 13.3346 17.9897 13.3346L8.93817 13.3349L12.2982 16.6879C12.3709 16.7606 12.4287 16.8468 12.4681 16.9417C12.5076 17.0366 12.528 17.1383 12.5281 17.241C12.5283 17.3438 12.5082 17.4455 12.4691 17.5404C12.4299 17.6353 12.3724 17.7215 12.2999 17.7942C12.2274 17.8668 12.1412 17.9244 12.0464 17.9637C11.9516 18.0031 11.8499 18.0233 11.7471 18.0233C11.6444 18.0233 11.5427 18.0031 11.4477 17.9638C11.3527 17.9245 11.2664 17.8668 11.1937 17.7942L6.49875 13.1069C6.42588 13.0343 6.36802 12.9481 6.32848 12.8532C6.28895 12.7583 6.26852 12.6565 6.26835 12.5537C6.26819 12.451 6.2883 12.3492 6.32754 12.2543C6.36677 12.1594 6.42436 12.0732 6.497 12.0006L11.1771 7.31297C11.3236 7.16627 11.5224 7.08385 11.7299 7.08384C11.9373 7.08383 12.1364 7.16624 12.2833 7.31293C12.4303 7.45963 12.513 7.65859 12.5133 7.86605C12.5137 8.07351 12.4316 8.27248 12.2851 8.41918L8.9357 11.7724L17.9873 11.7721Z" fill="#E6245E"/>    
</g>
<defs>
<clipPath id="clip0">
<rect width="25" height="25" fill="white" transform="matrix(1 -3.15826e-05 0.00157996 0.999999 0 0.0539551)"/>
</clipPath>
</defs>
</svg>
